<?xml version="1.0" encoding="utf-8"?>
<!-- Generator: Adobe Illustrator 24.2.0, SVG Export Plug-In . SVG Version: 6.00 Build 0)  -->
<svg version="1.1" id="Layer_1" xmlns="http://www.w3.org/2000/svg" xmlns:xlink="http://www.w3.org/1999/xlink" x="0px" y="0px"
	 viewBox="0 0 918 285" style="enable-background:new 0 0 918 285;" xml:space="preserve">
<style type="text/css">
	.st0{fill:#ABCD94;}
</style>
<g transform="translate(0.000000,285.000000) scale(0.100000,-0.100000)">
	<path class="st0" d="M1192,2565c-348-63-660-295-822-611c-48-93-93-229-111-334c-17-105-15-307,6-405c26-124,47-154,98-141
		c37,9,43,43,23,134c-51,232-21,473,86,686c54,108,89,157,181,253c443,461,1186,414,1569-101c223-300,265-707,108-1043
		c-110-235-320-435-553-527c-171-68-382-92-542-63c-91,16-121,10-131-28c-11-46,16-71,93-85c93-16,311-14,404,4
		c230,44,444,159,610,326c162,165,274,381,313,609c107,626-312,1216-942,1326C1479,2583,1291,2583,1192,2565z"/>
	<path class="st0" d="M1221,1954c-380-102-508-576-230-853c165-165,422-197,620-78l57,34l153-153c124-124,159-154,181-154
		c36,0,62,38,49,71c-5,13-76,90-157,170l-149,145l32,47c70,103,99,256,74,380C1792,1844,1496,2028,1221,1954z M1522,1821
		c177-84,267-289,209-478c-80-261-401-367-617-204c-163,123-212,350-112,521c28,46,95,116,136,142C1246,1869,1405,1877,1522,1821z"
		/>
	<path class="st0" d="M1162,1658c3-42,4-43,83-87c44-24,113-63,153-86l73-42l-150-69l-150-69l-1-42c0-24,2-43,5-43
		c10,0,369,172,383,183c7,6,12,24,10,41c-3,29-16,39-198,144c-107,61-198,112-203,112C1163,1700,1160,1681,1162,1658z"/>
	<path class="st0" d="M3518.6,1461.8v-453h68.6h68.6v211.4v211.4l57.7,49.4c46.7,39.8,68.6,49.4,115.3,49.4
		c46.7,0,64.5-6.9,86.5-35.7c26.1-34.3,28.8-54.9,28.8-260.8v-225.1h75.5h75.5v223.7c0,247.1-12.4,311.6-67.3,367.9
		c-70,70-226.5,65.9-314.3-8.2c-23.3-19.2-45.3-34.3-49.4-34.3c-4.1,0-8.2,81-8.2,178.4v178.4h-68.6h-68.6V1461.8z"/>
	<path class="st0" d="M3116.4,1638.9c-76.9-17.8-122.2-45.3-178.4-107.1c-119.4-133.1-97.5-362.4,45.3-466.7
		c115.3-82.4,308.9-86.5,428.3-8.2l52.2,34.3l-30.2,46.7l-30.2,45.3l-60.4-31.6c-159.2-85.1-332.2,5.5-332.2,173
		c0,162,171.6,258.1,318.5,178.4l50.8-26.1l35.7,42.6l37.1,43.9l-32.9,24.7c-39.8,31.6-153.7,65.9-208.6,64.5
		C3187.8,1651.3,3145.3,1645.8,3116.4,1638.9z"/>
	<path class="st0" d="M4356,1640.3c-59-15.1-178.4-64.5-178.4-75.5c0-12.4,41.2-89.2,48-89.2c2.7,0,37.1,12.4,75.5,27.5
		c82.4,32.9,188.1,35.7,229.2,6.9c15.1-11,35.7-38.4,42.6-60.4l15.1-41.2l-64.5-8.2c-271.8-35.7-373.4-94.7-373.4-215.5
		c0-119.4,74.1-181.2,212.8-181.2c63.1,0,100.2,8.2,153.7,37.1c39.8,20.6,74.1,37.1,78.2,37.1c4.1,0,8.2-13.7,11-30.2
		c2.7-26.1,13.7-32.9,63.1-35.7l57.7-4.1v227.9c0,162-5.5,240.2-19.2,271.8C4656.6,1625.2,4516.6,1678.7,4356,1640.3z
		 M4586.6,1246.3c-4.1-63.1-6.9-67.3-65.9-96.1c-107.1-54.9-233.4-31.6-233.4,42.6c0,17.8,12.4,42.6,27.5,56.3
		c30.2,27.5,145.5,59,223.7,60.4l52.2,1.4L4586.6,1246.3z"/>
	<path class="st0" d="M5091.7,1640.3c-22-6.9-63.1-31.6-92-54.9c-28.8-22-54.9-41.2-59-41.2c-4.1,0-8.2,20.6-11,45.3
		c-4.1,41.2-8.2,43.9-61.8,48l-59,4.1v-315.7v-317.1h68.6h68.6v210v210l38.4,35.7c82.4,78.2,174.3,90.6,221,30.2
		c26.1-34.3,28.8-54.9,28.8-260.8v-225.1h76.9h76.9l-5.5,251.2c-4.1,269-15.1,314.3-85.1,359.6
		C5257.8,1645.8,5145.2,1658.1,5091.7,1640.3z"/>
	<path class="st0" d="M5666.9,1634.8c-82.4-31.6-130.4-92-130.4-164.7c0-53.5,6.9-65.9,52.2-104.3c30.2-26.1,96.1-56.3,167.5-78.2
		c151-46.7,192.2-67.3,192.2-98.8c0-45.3-39.8-63.1-142.8-63.1c-72.8,1.4-116.7,9.6-171.6,34.3l-74.1,32.9l-31.6-41.2
		c-17.8-22-32.9-43.9-32.9-49.4c0-5.5,39.8-28.8,89.2-53.5c227.9-112.6,514.8-35.7,514.8,137.3c0,94.7-75.5,152.4-262.2,200.4
		c-111.2,28.8-152.4,54.9-146.9,92c8.2,57.7,157.9,65.9,263.6,15.1l52.2-24.7l32.9,41.2c17.8,23.3,32.9,45.3,32.9,49.4
		s-31.6,26.1-71.4,46.7C5912.6,1654,5756.1,1667.7,5666.9,1634.8z"/>
	<path class="st0" d="M6383.4,1634.8c-146.9-53.5-229.2-164.7-229.2-313c0-133.1,56.3-227.9,171.6-289.6
		c79.6-42.6,264.9-42.6,343.2,0c98.8,54.9,96.1,50.8,63.1,104.3l-30.2,49.4l-71.4-34.3c-39.8-17.8-86.5-32.9-105.7-32.9
		c-108.4,0-196.3,65.9-214.1,157.9c-32.9,181.2,126.3,302,302,227.9l68.6-28.8l31.6,37.1c16.5,22,28.8,45.3,27.5,52.2
		c-2.7,8.2-37.1,30.2-78.2,52.2C6578.3,1659.5,6472.6,1666.4,6383.4,1634.8z"/>
	<path class="st0" d="M6970.9,1634.8c-61.8-19.2-144.1-60.4-144.1-71.4c0-4.1,9.6-26.1,22-48c15.1-30.2,28.8-39.8,43.9-34.3
		c182.6,59,252.6,60.4,304.7,5.5c34.3-37.1,35.7-79.6,4.1-81c-156.5-5.5-306.1-53.5-359.6-115.3c-35.7-41.2-42.6-60.4-42.6-119.4
		c0-61.8,5.5-74.1,48-115.3c79.6-75.5,197.7-79.6,325.3-13.7c37.1,19.2,71.4,35.7,74.1,35.7c2.7,0,5.5-15.1,5.5-34.3
		c0-31.6,5.5-34.3,61.8-34.3h61.8v237.5c0,218.3-2.7,240.2-31.6,289.6C7285.2,1641.6,7124.6,1682.8,6970.9,1634.8z M7235.8,1253.2
		c2.7-37.1-2.7-56.3-24.7-76.9c-39.8-37.1-138.6-63.1-197.7-52.2c-81,15.1-98.8,97.5-31.6,134.5c39.8,22,152.4,46.7,205.9,45.3
		C7229,1304,7231.7,1299.8,7235.8,1253.2z"/>
	<path class="st0" d="M7712.2,1630.7c-22-12.4-56.3-32.9-74.1-46.7c-45.3-35.7-56.3-32.9-56.3,15.1c0,39.8-2.7,41.2-61.8,41.2h-61.8
		v-315.7v-315.7h75.5h75.5v218.3v218.3l41.2,35.7c78.2,65.9,192.2,59,219.6-12.4c8.2-20.6,13.7-131.8,13.7-248.5v-211.4h75.5h75.5
		v237.5c0,269-16.5,329.4-98.8,380.2C7881,1659.5,7771.2,1662.2,7712.2,1630.7z"/>
</g>
</svg>
